<?xml version="1.0" encoding="UTF-8" standalone="no"?>
<!-- Created with Inkscape (http://www.inkscape.org/) -->

<svg
   xmlns:dc="http://purl.org/dc/elements/1.1/"
   xmlns:cc="http://creativecommons.org/ns#"
   xmlns:rdf="http://www.w3.org/1999/02/22-rdf-syntax-ns#"
   xmlns:svg="http://www.w3.org/2000/svg"
   xmlns="http://www.w3.org/2000/svg"
   xmlns:sodipodi="http://sodipodi.sourceforge.net/DTD/sodipodi-0.dtd"
   xmlns:inkscape="http://www.inkscape.org/namespaces/inkscape"
   id="svg4414"
   version="1.1"
   inkscape:version="0.91 r13725"
   xml:space="preserve"
   width="990"
   height="377.5"
   viewBox="0 0 990 377.5"
   sodipodi:docname="wordmark_super_simple.svg"
   inkscape:export-filename="/tmp/dw_white_on_transparent.png"
   inkscape:export-xdpi="200.02649"
   inkscape:export-ydpi="200.02649"><metadata
     id="metadata4420"><rdf:RDF><cc:Work
         rdf:about=""><dc:format>image/svg+xml</dc:format><dc:type
           rdf:resource="http://purl.org/dc/dcmitype/StillImage" /><dc:title></dc:title></cc:Work></rdf:RDF></metadata><defs
     id="defs4418"><clipPath
       clipPathUnits="userSpaceOnUse"
       id="clipPath4430"><path
         d="M 0,302 792,302 792,0 0,0 0,302 Z"
         id="path4432"
         inkscape:connector-curvature="0" /></clipPath></defs><sodipodi:namedview
     pagecolor="#ffffff"
     bordercolor="#666666"
     borderopacity="1"
     objecttolerance="10"
     gridtolerance="10"
     guidetolerance="10"
     inkscape:pageopacity="0"
     inkscape:pageshadow="2"
     inkscape:window-width="1600"
     inkscape:window-height="876"
     id="namedview4416"
     showgrid="false"
     inkscape:zoom="1.3030616"
     inkscape:cx="496.95071"
     inkscape:cy="203.20399"
     inkscape:window-x="0"
     inkscape:window-y="24"
     inkscape:window-maximized="1"
     inkscape:current-layer="g4422"
     inkscape:object-nodes="true" /><g
     id="g4422"
     inkscape:groupmode="layer"
     inkscape:label="deckahedron black(1)"
     transform="matrix(1.25,0,0,-1.25,0,377.5)"><g
       style="stroke:#ff0000"
       id="g4478"
       transform="translate(84.3257,186.8389)" /><g
       style="stroke:#ff0000"
       id="g4554"
       transform="translate(316.521,158.2549)" /><g
       style="stroke:#ff0000"
       id="g4786"
       transform="translate(70.0371,214.8433)" /><g
       id="g7310"><g
         transform="translate(552.6865,100.5322)"
         id="g4646"
         style="stroke:#ff0000"><path
           inkscape:connector-curvature="0"
           id="path4648"
           style="fill:#ffffff;fill-opacity:1;fill-rule:nonzero;stroke:#ff0000"
           d="m 0,0 0.003,0.008 c 0.002,0.01 0.003,0.017 0.006,0.027 L 0,0 Z" /></g><g
         transform="translate(328.1899,160.4131)"
         id="g4666"
         style="stroke:#ff0000"><path
           inkscape:connector-curvature="0"
           id="path4668"
           style="fill:#ffffff;fill-opacity:1;fill-rule:nonzero;stroke:#ff0000"
           d="m 0,0 c -2.262,1.039 -3.361,2.689 -3.361,4.583 0,1.102 0.306,2.2 0.794,3.301 l 2.26,5.043 c -0.825,0.149 -2.114,0.271 -3.003,0.271 L -5.971,7.393 C -7.744,3.607 -9.394,1.467 -11.655,0 l 0,-0.121 L 0,-0.121 0,0 Z" /></g><g
         transform="translate(341.7837,175.084)"
         id="g4670"
         style="stroke:#ff0000"><path
           sodipodi:nodetypes="ccccccccccccccccccccccccccccc"
           inkscape:connector-curvature="0"
           id="path4672"
           style="fill:#ffffff;fill-opacity:1;fill-rule:nonzero;stroke:#ff0000"
           d="m 0,0 c -4.189,1.956 -8.108,2.929 -11.687,3.197 l 5.025,11.21 z m -22.363,22.399 c 0.805,3.312 4.549,3.972 7.984,2.537 2.782,-1.162 4.315,-2.873 7.522,-3.44 1.505,-0.267 3.167,-0.029 4.115,0.903 C -3.164,21.13 -4.7,19.92 -7.059,19.89 L -14.713,3.261 c -7.375,-0.04 -12.314,-3.444 -14.347,-5.755 6.296,3.108 15.966,3.98 24.536,0.007 3.027,-1.405 5.296,-3.101 7.085,-5.197 1.847,-2.243 2.065,-4.368 0.432,-6.169 -0.264,-0.291 -0.825,-0.685 -1.052,-0.818 l 0,-0.121 18.335,0 0,0.121 c -2.138,1.467 -3.114,2.933 -4.948,6.722 L 11.331,0.2415 C 9.694,3.577 10.401,5.877 12.481,6.349 L 12.404,6.503 C 9.852,6.976 7.667,7.856 5.989,11.184 l -0.008,0.007 -8.497,17.403 c 0,0 -0.884,0.008 -1.273,-0.002 -2.45,-2.893 -6.455,-1.348 -8.982,-0.842 -2.034,0.406 -4.462,0.499 -6.433,-0.135 -1.454,-0.467 -3.867,-2.237 -3.159,-5.216" /></g><g
         transform="translate(88.2915,230.3701)"
         id="g4674"
         style="stroke:#ff0000"><path
           inkscape:connector-curvature="0"
           id="path4676"
           style="fill:#ffffff;fill-opacity:1;fill-rule:nonzero;stroke:#ff0000"
           d="M 0,0 C -0.03,0.005 -0.06,-0.268 -0.043,-0.409 0.109,-1.741 1.073,-2.871 2.203,-3.04 2.405,-3.07 2.607,-3.1 2.81,-3.131 2.842,-3.467 2.874,-3.802 2.905,-4.139 3.027,-5.41 3.78,-6.333 4.308,-6.83 c 0.907,0.592 1.316,1.262 1.4,2.284 0.026,0.335 0.054,0.67 0.082,1.004 0.208,-0.025 0.416,-0.05 0.626,-0.074 1.126,-0.132 2.093,0.708 2.246,1.949 0.016,0.133 -0.01,0.405 -0.04,0.41 C 5.609,1.502 4.692,5.922 4.357,7.947 4.332,8.164 4.309,8.36 4.293,8.501 4.011,6.783 3.188,2.075 0,0" /></g><g
         transform="translate(94.7031,132.0674)"
         id="g4678"
         style="stroke:#ff0000"><path
           inkscape:connector-curvature="0"
           id="path4680"
           style="fill:#ffffff;fill-opacity:1;fill-rule:nonzero;stroke:#ff0000"
           d="M 0,0 C -0.203,-0.033 -0.406,-0.066 -0.607,-0.1 -0.641,0.225 -0.672,0.549 -0.704,0.871 -0.828,2.09 -1.577,2.787 -2.109,3.131 -3.015,2.277 -3.425,1.475 -3.506,0.42 -3.534,0.074 -3.562,-0.271 -3.588,-0.619 c -0.209,-0.039 -0.417,-0.08 -0.625,-0.117 -1.125,-0.217 -2.088,-1.385 -2.242,-2.717 -0.016,-0.143 -0.039,-0.361 -0.039,-0.361 0,0 0.02,-0.012 0.08,-0.049 3.001,-1.834 3.92,-5.899 4.257,-7.793 0.024,-0.213 0.047,-0.405 0.064,-0.537 0.277,1.769 1.056,6.572 4.026,9.64 0.089,0.092 0.271,0.219 0.356,0.305 -0.017,0.131 -0.021,0.25 -0.038,0.381 C 2.098,-0.627 1.13,0.176 0,0" /></g><g
         transform="translate(376.8726,164.8853)"
         id="g4682"
         style="stroke:#ff0000"><path
           sodipodi:nodetypes="csccccsccccsccsccsccccsccccsccccsccsccscccc"
           inkscape:connector-curvature="0"
           id="path4684"
           style="fill:#ffffff;fill-opacity:1;fill-rule:nonzero;stroke:#ff0000"
           d="m -6.773,38.11 c 2.966,-0.821 4.123,-3.024 4.123,-6.224 l 0,-10.103 C -2.671,18.456 -4.43,16.27 -6.747,15.797 l 0,-0.153 c 2.317,-0.473 4.076,-2.662 4.097,-5.986 l 0,-7.958 c 0,-3.2 -1.157,-5.401 -4.123,-6.221 l 0,-0.072 17.765,0 0,0.121 c -2.75,1.773 -3.36,3.298 -3.36,7.332 l 0,12.438 c 4.274,-0.428 7.843,-1.181 10.13,-3.035 0,0.003 0,0.003 0.001,0.003 10e-4,0 10e-4,0 10e-4,-0.003 2.29,1.857 5.864,2.611 10.147,3.038 l 0,-12.441 c 0,-4.034 -0.61,-5.559 -3.361,-7.332 l 0,-0.121 17.766,0 0,0.072 C 39.349,-3.701 38.193,-1.5 38.193,1.7 l 0,7.958 c 0.02,3.324 1.78,5.513 4.097,5.986 l 0,0.153 c -2.317,0.473 -4.077,2.659 -4.097,5.986 l 0,10.103 c 0,3.2 1.156,5.403 4.123,6.224 l 0,0.073 -17.766,0 0,-0.122 c 2.751,-1.772 3.361,-3.24 3.361,-7.273 l 0,-14.516 c -4.283,0.427 -7.857,1.181 -10.147,3.038 0,-0.002 0,-0.002 -10e-4,-0.002 -0.001,0 -0.001,0 -0.001,0.002 -2.287,-1.855 -5.856,-2.608 -10.13,-3.035 l 0,14.513 c 0,4.033 0.61,5.501 3.36,7.273 l 0,0.122 -17.765,0 z" /></g><g
         transform="translate(438.6777,164.8853)"
         id="g4686"
         style="stroke:#ff0000"><path
           sodipodi:nodetypes="csccccsccccccccsccccccccsccccccccc"
           inkscape:connector-curvature="0"
           id="path4688"
           style="fill:#ffffff;fill-opacity:1;fill-rule:nonzero;stroke:#ff0000"
           d="m -4.193,36.547 c 1.015,-1.124 1.456,-2.702 1.456,-4.661 l 0,-10.103 c -0.021,-3.327 -1.78,-5.513 -4.098,-5.986 l 0,-0.153 c 2.318,-0.473 4.077,-2.662 4.098,-5.986 l 0,-7.958 c 0,-3.469 -1.491,-5.233 -4.124,-6.221 l 0,-0.072 0.844,0 42.219,0 -4.705,3.733 c 0.097,0.194 0.202,0.381 0.281,0.584 1.442,3.669 -0.036,8.759 -5.495,9.32 3.287,-1.745 3.287,-4.62 2.583,-6.678 -0.892,-2.61 -4.106,-3.964 -7.583,-3.964 l -13.798,0 0,8.544 c 0.023,0.163 0.041,0.345 0.05,0.57 0.31,7.122 7.309,8.411 13.607,8.761 l 0,1.438 c -3.355,0 -16.017,0.006 -16.234,0.006 1.198,0.345 2.399,1.143 2.577,2.719 l 0,14.745 14.632,0 c 1.812,0 3.886,-0.239 4.444,-1.812 0.36,-1.019 0.168,-2.691 -1.568,-3.8 3.626,-0.255 5.324,3.523 3.543,6.113 0.648,0.668 2.625,2.497 2.625,2.497 l -37.178,0 -0.844,0 0,-0.073 c 1.103,-0.305 1.954,-0.803 2.59,-1.47 0.029,-0.031 0.051,-0.062 0.078,-0.093" /></g><g
         transform="translate(460.1055,87.2158)"
         id="g4706"
         style="stroke:#ff0000"><path
           sodipodi:nodetypes="cccscccccsccccsccccsccccc"
           inkscape:connector-curvature="0"
           id="path4708"
           style="fill:#ffffff;fill-opacity:1;fill-rule:nonzero;stroke:#ff0000"
           d="M 36.583,1.777 C 38.302,6.146 36.541,12.207 30.04,12.875 33.955,10.797 33.909,7.059 33.069,4.607 32.007,1.5 28.648,-0.404 23.437,-0.404 l -15.484,0 0,12.088 c -0.278,2.867 -1.916,4.753 -4.039,5.187 l 0,0.154 c 2.123,0.432 3.761,2.317 4.039,5.186 l 0,9.805 c 0,4.033 0.672,5.5 3.36,7.273 l 0,0.121 -17.859,0 0,-0.072 c 2.968,-0.822 4.125,-3.024 4.125,-6.225 l 0,-10.103 c -0.021,-3.326 -1.78,-5.512 -4.098,-5.985 l 0,-0.154 c 2.318,-0.473 4.077,-2.662 4.098,-5.986 l 0,-7.957 c 0,-3.199 -1.157,-5.403 -4.125,-6.223 l 0,-0.07 48.399,0 -5.604,4.447 c 0.115,0.229 0.24,0.451 0.334,0.695" /></g><g
         transform="translate(266.3726,164.8853)"
         id="g4714"
         style="stroke:#ff0000"><path
           sodipodi:nodetypes="sccccsccccscccccccccccccsccs"
           inkscape:connector-curvature="0"
           id="path4716"
           style="fill:#ffffff;fill-opacity:1;fill-rule:nonzero;stroke:#ff0000"
           d="m -2.704,31.886 0,-10.103 C -2.725,18.456 -4.484,16.27 -6.8,15.797 l 0,-0.153 c 2.316,-0.473 4.075,-2.662 4.096,-5.986 l 0,-7.958 c 0,-3.2 -1.156,-5.401 -4.123,-6.221 l 0,-0.072 17.787,0 0,0.121 C 8.273,-2.699 7.599,-1.174 7.599,2.86 l 0,11.515 c 0.697,0.423 1.398,0.854 2.099,1.299 L 20.629,2.311 c 1.592,-2.014 2.441,-3.266 2.24,-4.723 -0.173,-1.242 -1.012,-1.736 -2.116,-2.06 l 0,-0.121 20.821,0 0,0.121 c -3.149,1.334 -5.251,2.021 -9.215,6.66 l -14.15,19.385 c 7.866,5.996 14.272,12.671 14.665,17.945 0.253,3.368 -1.207,6.872 -6.2265,9.0095 C 33.753,39.157 19.381,25.118 7.599,17.458 l 0,13.33 c 0,4.033 0.674,5.501 3.361,7.334 L -6.827,38.1465 C -3.86,37.289 -2.704,35.086 -2.704,31.886 Z" /></g><g
         transform="translate(559.7041,96.2822)"
         id="g4718"
         style="stroke:#ff0000"><path
           sodipodi:nodetypes="cccccccscccccccccsccccsccccsccccccccsccccc"
           inkscape:connector-curvature="0"
           id="path4720"
           style="fill:#ffffff;fill-opacity:1;fill-rule:nonzero;stroke:#ff0000"
           d="m -19.41,-9.557 -13.96,0 0,12.123 c -0.263,2.897 -1.906,4.805 -4.044,5.241 l 0,0.154 c 2.138,0.434 3.781,2.34 4.044,5.24 l 0,14.27 13.655,0 c 8.209,0 14.067,-4.789 15.318,-14.338 0.031,-0.238 0.158,-1.006 0.192,-1.141 0.556,-2.217 2.02,-3.662 3.843,-4.031 l 0,-0.154 C -2.1,7.451 -3.793,6.121 -4.451,4.08 -4.512,3.893 -4.689,3.098 -4.729,2.9 -6.48,-5.662 -12.032,-9.557 -19.41,-9.557 m 26.009,21.963 -0.019,0 c -1.546,12.123 -11.795,17.94 -25.746,17.94 l -27.705,0 -0.813,0 0,-0.073 c 1.026,-0.283 1.799,-0.767 2.443,-1.341 1.177,-1.047 1.682,-2.746 1.682,-4.592 l 0,-10.395 c -0.021,-3.326 -1.78,-5.511 -4.097,-5.984 l 0,-0.154 c 2.317,-0.473 4.076,-2.662 4.097,-5.987 l 0,-7.957 c 0,-0.273 -0.021,-0.527 -0.037,-0.785 -0.018,-0.207 -0.032,-0.424 -0.058,-0.613 -0.005,-0.037 -0.012,-0.07 -0.018,-0.108 -0.05,-0.337 -0.112,-0.658 -0.192,-0.953 -0.002,-0.006 -0.004,-0.013 -0.007,-0.019 -0.295,-1.074 -0.82,-1.881 -1.641,-2.637 -0.581,-0.48 -1.287,-0.863 -2.172,-1.107 l 0,-0.071 29.069,0 c 12.482,0 22.31,5.096 24.795,15.93 l 0.018,0 c 0.501,2.369 2.439,3.92 4.335,4.307 l 0,0.154 C 8.599,8.354 7.068,9.955 6.599,12.406" /></g><g
         transform="translate(551.0781,164.104)"
         id="g4722"
         style="stroke:#ff0000"><path
           sodipodi:nodetypes="csccccsccccccscccccccccccccccccccccc"
           inkscape:connector-curvature="0"
           id="path4724"
           style="fill:#ffffff;fill-opacity:1;fill-rule:nonzero;stroke:#ff0000"
           d="m -6.704,38.391 c 2.999,-0.694 4.169,-2.875 4.169,-6.108 l 0,-10.199 C -2.557,18.722 -4.334,16.533 -6.679,16.09 l 0,-0.151 c 2.345,-0.496 4.122,-2.733 4.144,-6.095 l 0,-8.032 c 0,-3.231 -1.169,-5.39 -4.169,-6.028 l 0,-0.071 c 1.704,-0.103 3.41,-0.207 5.113,-0.312 0.886,-0.055 1.77,-0.109 2.655,-0.166 3.611,-0.229 7.22,-0.465 10.826,-0.707 l 0,0.074 c -2.993,1.063 -4.161,3.408 -4.161,6.72 0,2.075 -0.021,7.732 -0.021,8.484 -0.105,3.281 -1.813,5.467 -4.069,5.987 -0.01,0.032 -0.021,0.064 -0.032,0.096 0.011,0.03 0.022,0.061 0.032,0.092 2.257,0.462 3.963,2.606 4.069,5.883 l 0,14.818 c 3.334,0.13 6.665,0.266 9.993,0.406 5.909,0.268 10.272,-2.998 10.273,-9.627 -0.001,-4.678 -2.214,-8.01 -5.463,-9.548 -4.219,-2.001 -10.114,-1.871 -13.506,-2.091 0.408,-0.036 1.612,-0.232 1.986,-0.276 1.526,-0.208 6.631,-0.683 11.385,-4.214 3.307,-2.456 4.508,-6.407 5.953,-10.737 4.554,-13.641 9.72,-20.282 17.02,-23.762 -4.222,5.425 -5.936,11.357 -7.47,17.822 -1.95,8.214 -1.224,13.914 -1.305,18.062 -5.527,-1.483 -11.147,0.614 -13.704,1.977 0.777,0.056 1.563,0.109 2.317,0.184 7.274,0.679 13.584,4.693 13.583,12.844 0,9.33 -6.801,12.578 -16.025,12.08 -9.79,-0.488 -19.608,-0.934 -29.449,-1.338 z" /></g><g
         transform="translate(369.8887,96.2822)"
         id="g4726"
         style="stroke:#ff0000"><path
           sodipodi:nodetypes="cccccsccccsccccccccsccccccc"
           inkscape:connector-curvature="0"
           id="path4728"
           style="fill:#ffffff;fill-opacity:1;fill-rule:nonzero;stroke:#ff0000"
           d="m -36.371,2.158 c -0.637,3.801 1.356,5.508 3.673,5.977 l 0,0.154 c -2.017,0.412 -3.553,2.133 -4.002,4.752 -0.144,0.842 0.066,2.115 0.16,2.553 1.941,8.986 8.116,13.076 15.207,13.076 7.366,0 13.779,-4.49 15.379,-14.402 0.382,-3.036 -1.78,-5.506 -4.096,-5.979 l 0,-0.154 c 2.324,-0.471 4.324,-2.184 3.67,-6.01 -2.117,-8.455 -8.125,-12.313 -14.953,-12.313 -6.897,0 -12.926,3.868 -15.038,12.346 m 15.038,29.082 c -12.962,0 -24.973,-6.445 -28.523,-16.084 -0.118,-0.322 -0.427,-1.4 -0.34,-2.39 0.228,-2.575 2.063,-4.08 4.007,-4.477 l 0,-0.154 c -2.026,-0.41 -3.695,-2.069 -3.46,-4.76 0.054,-0.623 0.35,-1.41 0.456,-1.631 4.22,-8.76 15.62,-14.504 27.86,-14.504 11.98,0 23.191,5.557 27.575,14.074 0.179,0.35 0.604,1.112 0.682,2.473 0.14,2.445 -1.562,3.959 -3.483,4.348 l 0,0.154 c 1.861,0.379 3.557,1.566 3.904,3.943 0.153,1.045 -0.158,2.739 -0.298,3.11 C 3.414,24.881 -8.52,31.24 -21.333,31.24" /></g><g
         transform="translate(525.123,172.9106)"
         id="g4730"
         style="stroke:#ff0000"><path
           sodipodi:nodetypes="cccccccscccccccccccccsccsccccsccsc"
           inkscape:connector-curvature="0"
           id="path4732"
           style="fill:#ffffff;fill-opacity:1;fill-rule:nonzero;stroke:#ff0000"
           d="m -20.028,-9.746 -7.222,0 0,12.123 c -0.262,2.898 -1.906,4.806 -4.043,5.241 l 0,0.153 c 2.137,0.436 3.781,2.342 4.043,5.241 l 0,14.269 6.916,0 c 8.415,0 14.358,-5.031 15.403,-15.063 l 0.016,0 c 0.469,-2.451 2,-4.053 3.935,-4.447 l 0,-0.153 C -2.878,7.23 -4.722,5.681 -5.224,3.312 l -0.008,0 C -6.845,-5.67 -12.479,-9.746 -20.028,-9.746 m 25.589,13.058 0.018,0 C 6.081,5.681 8.018,7.23 9.915,7.618 l 0,0.153 C 7.98,8.165 6.45,9.767 5.98,12.218 l -0.018,0 C 4.416,24.341 -5.834,30.157 -19.784,30.157 l -21.779,0 0,-0.073 c 2.966,-0.821 4.124,-3.023 4.124,-6.223 l 0,-10.104 C -37.461,10.43 -39.22,8.244 -41.536,7.771 l 0,-0.153 c 2.316,-0.472 4.075,-2.661 4.097,-5.986 l 0,-7.957 c 0,-3.2 -1.158,-5.401 -4.124,-6.221 l 0,-0.073 22.329,0 c 12.482,0 22.311,5.098 24.795,15.931" /></g><g
         transform="translate(215.9033,171.916)"
         id="g4738"
         style="stroke:#ff0000"><path
           sodipodi:nodetypes="ccccccccccccccccccccccc"
           inkscape:connector-curvature="0"
           id="path4740"
           style="fill:#ffffff;fill-opacity:1;fill-rule:nonzero;stroke:#ff0000"
           d="m -7.341,13.106 c -0.026,-0.149 -0.168,-0.833 -0.214,-1.017 -0.6,-2.443 -2.241,-4.063 -4.044,-4.511 l 0,-0.174 C -9.995,7.056 -8.375,5.766 -7.603,3.78 -7.524,3.577 -7.332,2.781 -7.298,2.598 -5.22,-8.817 3.336,-15.228 13.859,-14.394 c 9.602,0.733 16.21,6.373 18.309,14.726 -0.123,0.037 -0.246,0.074 -0.37,0.111 C 29.018,-5.482 24.762,-7.555 19.647,-7.833 14.004,-8.147 8.048,-5.333 5.015,0.913 4.964,0.987 4.407,2.298 4.313,2.552 2.989,5.521 1.078,7.149 -0.949,7.575 l 0,0.169 c 2.12,0.513 3.775,2.563 4.07,5.673 0.029,0.304 0.151,1.444 0.185,1.674 1.309,8.997 6.445,15.443 13.822,15.074 7.087,-0.332 11.632,-5.161 13.743,-13.37 0.041,0 0.082,0 0.123,-0.002 -0.161,5.127 -0.325,10.258 -0.488,15.396 -0.815,-1.607 -2.993,-1.992 -4.656,-1.92 -2.036,0.082 -4.356,1.777 -9.959,2.061 C 4.618,32.98 -5.213,25.516 -7.341,13.106" /></g><g
         transform="translate(610.3818,169.3989)"
         id="g4742"
         style="stroke:#ff0000"><path
           sodipodi:nodetypes="cccccccccccccccccccccc"
           inkscape:connector-curvature="0"
           id="path4744"
           style="fill:#ffffff;fill-opacity:1;fill-rule:nonzero;stroke:#ff0000"
           d="M 17.293,35.128 C 27.771,34.9 29.771,22.515 30.137,18.772 30.202,18.105 30.204,17.066 30.183,16.751 29.921,12.839 28.078,9.893 25.937,9.275 28.113,8.564 30.37,5.473 30.049,1.06 28.725,-10.425 25.021,-14.109 17.293,-13.55 10.163,-13.037 5.837,-7.439 4.583,3.623 4.482,7.328 6.451,9.028 8.538,9.6065 6.218,10.328 4.455,13.011 4.449,17.043 5.504,28.956 9.892,35.29 17.293,35.128 M -8.543,18.43 c -0.161,-0.573 -0.5,-2.237 -0.412,-3.386 0.221,-2.897 2.074,-4.612 3.985,-5.1975 C -7.286,9.235 -9.15,6.854 -8.229,2.85 -4.831,-7.599 4.963,-15.474 17.293,-16.773 c 11.876,-1.252 21.305,5 24.936,16.347 0.113,0.35 0.395,1.315 0.5,2.255 0.448,3.962 -1.291,6.454 -3.393,7.1715 1.957,0.5955 3.727,2.6815 3.965,6.2865 0.09,1.36 -0.219,2.729 -0.335,3.248 C 40.032,31.597 30.075,39.342 17.293,38.348 4.569,37.369 -5.463,29.355 -8.543,18.43" /></g><g
         transform="translate(715.6377,165.5737)"
         id="g4778"
         style="stroke:#ff0000"><path
           sodipodi:nodetypes="cscsccccccccccscsccccccccccccccccccc"
           inkscape:connector-curvature="0"
           id="path4780"
           style="fill:#ffffff;fill-opacity:1;fill-rule:nonzero;stroke:#ff0000"
           d="m 2.878,24.902 c 0,0 -0.019,45.235 -0.019,45.925 0,0.691 0.06,1.431 0.108,1.713 0.547,3.189 3.415,5.626 6.893,5.626 2.266,0 4.277,-1.039 5.556,-2.64 -0.564,2.715 -2.83,4.833 -5.686,5.309 C 8.397,81.057 6.999,80.838 6.42,80.673 4.198,80.039 2.886,78.841 2.096,76.433 2.392,79.318 3.6,80.435 4.88,81.545 5.192,86.577 0.861,92.301 -5.535,92.907 -1.598,90.938 1.309,88.105 0.957,81.414 0.752,77.525 -1.666,73.521 -5.229,72.28 c -2.876,-1.001 -6.325,-0.86 -6.325,-0.86 0,0 1.597,-0.667 2.398,-0.979 3.107,-1.209 7.907,-3.097 7.907,-10.911 0,-0.772 -10e-4,-44.554 -10e-4,-53.119 -1.48,12.043 -8.564,41.089 -42.782,48.401 -2.279,0.487 -5.015,0.642 -5.477,0.666 l 0,-0.469 c 3.755,-2.914 4.696,-6.731 4.696,-14.388 l -0.018,-13.623 c -0.036,-8.055 -3.175,-13.288 -7.321,-14.4695 3.993,-1.3255 7.245,-6.4965 7.217,-14.0725 -0.028,-7.482 -2.235,-12.537 -6.351,-15.2135 5.92,-0.7875 11.821,-1.4835 17.706,-2.0805 -5.066,4.005 -7.051,10.388 -7.048,20.067 l 0,2.59 c -0.123,4.624 -1.938,7.712 -4.327,8.5295 2.389,0.7075 4.203,3.7045 4.327,8.3235 l 0,19.741 c 21.897,-3.773 35.401,-44.515 39.358,-67.4 1.387,-0.144 2.769,-0.349 4.148,-0.578 l 0,25.183 c 0.289,8.538 3.256,12.004 7.136,13.204 l 0,0.437 C 6.133,12.678 3.167,16.348 2.878,24.902" /></g><g
         transform="translate(435.0674,81.4014)"
         id="g4782"
         style="stroke:#ff0000"><path
           sodipodi:nodetypes="ccccssccsccccccsccccccsccccccccssccccccccc"
           inkscape:connector-curvature="0"
           id="path4784"
           style="fill:#ffffff;fill-opacity:1;fill-rule:nonzero;stroke:#ff0000"
           d="M 3.1,2.152 C 1.296,8.635 1.754,16.723 1.674,20.418 c -5.509,-1.457 -11.096,0.312 -13.638,1.555 0.775,0.064 1.553,0.125 2.303,0.205 7.232,0.769 13.523,4.422 13.523,11.635 0,8.25 -6.783,11.488 -15.95,11.488 l -34.622,0 0,-0.072 c 2.967,-0.821 4.124,-3.024 4.124,-6.225 l 0,-10.104 c -0.023,-3.324 -1.781,-5.513 -4.098,-5.986 l 0,-0.154 c 2.317,-0.471 4.075,-2.658 4.098,-5.985 l 0,-1.939 0,-1.301 0,-4.717 c 0,-3.201 -1.157,-5.402 -4.124,-6.222 l 0,-0.073 5.058,0 2.627,0 10.725,0 0,0.073 c -2.967,0.82 -4.124,3.021 -4.124,6.222 l 0,6.018 -0.021,0 0,2.178 c -0.104,3.162 -1.796,5.25 -4.03,5.73 l -0.032,0.094 0.03,0.092 c 2.236,0.484 3.928,2.572 4.032,5.732 l 0,14.315 15.346,0 c 5.867,0 10.209,-3.176 10.209,-9.227 0,-4.279 -2.204,-7.328 -5.431,-8.789 -4.194,-1.899 -15.477,-1.869 -18.837,-2.117 0.335,-0.026 0.71,-0.055 1.104,-0.084 -0.027,0 -0.062,-0.002 -0.09,-0.002 6.914,-0.424 12.929,-2.024 16.308,-4.328 3.265,-2.225 5.815,-4.879 7.454,-9.909 1.486,-4.558 2.575,-8.835 5.662,-12.833 4.153,-5.379 9.061,-8.774 13.779,-10.471 C 6.909,-9.943 4.621,-3.318 3.1,2.152" /></g><path
         id="path4806"
         transform="matrix(0.8,0,0,-0.8,0,302)"
         d="M 237.66992 227.46875 C 236.90946 228.99919 236.48444 230.63596 236.39453 232.2832 C 236.37078 232.7307 236.32336 234.37148 236.25586 234.74023 C 235.81461 237.17148 234.47906 239.35352 232.47656 240.85352 C 230.61156 242.24727 227.87172 243.12711 224.10547 243.53711 C 221.45047 243.82336 196.54992 245.42094 188.32617 245.83594 C 187.22367 245.89219 162.70117 247.19336 162.70117 247.19336 C 162.70117 247.19336 187.27063 248.65609 188.42188 248.71484 C 196.73812 249.13859 221.45922 250.72602 224.10547 251.00977 C 227.87172 251.42227 230.61156 252.30211 232.47656 253.69336 C 234.47906 255.19461 235.81461 257.37609 236.25586 259.80859 C 236.32336 260.17734 236.37078 261.81742 236.39453 262.26367 C 236.48444 263.90917 236.90946 265.54711 237.66992 267.07812 L 237.66992 256.05859 C 236.81742 254.34734 235.57445 252.8343 234.00195 251.6543 C 231.7607 249.9793 228.61336 248.94031 224.38086 248.47656 C 224.22836 248.46031 215.65695 247.86719 206.5957 247.27344 C 215.65695 246.68094 224.22836 246.08531 224.38086 246.07031 C 228.61336 245.60656 231.7607 244.56953 234.00195 242.89453 C 235.57445 241.71578 236.81742 240.20148 237.66992 238.49023 L 237.66992 227.46875 z "
         style="fill:#ffffff;fill-opacity:1;fill-rule:nonzero;stroke:#ff0000;stroke-width:1.25" /><path
         id="path4820"
         transform="matrix(0.8,0,0,-0.8,0,302)"
         d="M 753.79492 227.46875 L 753.79492 238.49023 C 754.64617 240.20148 755.89039 241.71453 757.46289 242.89453 C 759.70414 244.56828 762.85148 245.60531 767.08398 246.07031 C 767.23773 246.08406 775.80984 246.68094 784.87109 247.27344 C 775.80984 247.86719 767.23773 248.46031 767.08398 248.47656 C 762.85148 248.94031 759.70414 249.98055 757.46289 251.6543 C 755.89039 252.8343 754.64617 254.34734 753.79492 256.05859 L 753.79492 267.07812 C 754.55553 265.54719 754.98019 263.91025 755.06836 262.26562 C 755.09336 261.81813 755.14344 260.17734 755.21094 259.80859 C 755.65094 257.37609 756.98453 255.19266 758.98828 253.69141 C 760.85203 252.30016 763.59312 251.42227 767.35938 251.00977 C 770.00437 250.72602 794.72672 249.13984 803.04297 248.71484 C 804.19547 248.65609 828.76367 247.19336 828.76367 247.19336 C 828.76367 247.19336 804.24242 245.89219 803.13867 245.83594 C 794.91617 245.42094 770.01438 243.82141 767.35938 243.53516 C 763.59312 243.12516 760.85203 242.24727 758.98828 240.85352 C 756.98453 239.35477 755.65094 237.17148 755.21094 234.74023 C 755.14344 234.37148 755.09336 232.7307 755.06836 232.2832 C 754.98018 230.6366 754.55574 228.99929 753.79492 227.46875 z "
         style="fill:#ffffff;fill-opacity:1;fill-rule:nonzero;stroke:#ff0000;stroke-width:1.25" /><g
         transform="translate(295.2217,103.7373)"
         id="g4878"
         style="stroke:#ff0000"><path
           sodipodi:nodetypes="cccccccccccccccccccccccccccccccccccccccccccccccccccccccccccccccccccccc"
           inkscape:connector-curvature="0"
           id="path4880"
           style="fill:#ffffff;fill-opacity:1;fill-rule:nonzero;stroke:#ff0000"
           d="m 14.189,30.281 c 1.125,2.44 3.329,4.621 5.605,5.125 C 16.42,36.357 10.88,35.141 8.693,30.799 8.738,30.729 8.783,30.658 8.83,30.588 10.135,28.627 10.493,25.99 10.25,23.687 10.172,22.943 10.027,22.328 9.913,21.92 9.787,21.506 9.716,21.271 9.716,21.271 c 0,0 0.034,0.243 0.096,0.67 0.053,0.428 0.1,1.032 0.067,1.76 -0.115,2.555 -1.094,5.246 -3.048,6.973 -0.551,0.486 -1.21,0.955 -1.873,1.277 -1.592,0.77 -3.57,1.151 -5.946,1.242 C 3.069,31.545 3.603,28.408 3.857,25.84 3.99,24.504 4.164,21.922 2.212,18.008 -0.489,12.592 -8.99,-3.125 -8.99,-3.125 l -12.073,27.223 c -1.475,4.017 -0.1,7.972 3.76,8.582 -2.077,1.22 -6.683,1.447 -8.356,-1.557 0.792,3.887 3.544,4.527 3.544,4.527 -0.446,4.276 -3.459,4.489 -3.77,8.258 -0.409,-3.662 -3.553,-4.623 -3.707,-8.258 0,0 2.897,-0.82 3.625,-4.716 -1.579,3.203 -6.337,2.992 -8.457,1.746 3.956,-0.623 5.333,-4.379 3.664,-8.901 l -11.983,-27 -11.554,21.846 c -1.161,2.432 -1.489,4.824 -1.353,7.043 0.22,3.617 1.435,5.965 4.751,7.525 -3.462,-0.134 -6.081,-0.88 -7.884,-2.556 0.018,-0.096 0.039,-0.188 0.055,-0.285 0.057,-0.493 0.116,-1 0.104,-1.512 -0.051,-2.356 -0.704,-4.713 -2.022,-6.678 -0.406,-0.619 -0.817,-1.094 -1.109,-1.398 -0.303,-0.301 -0.476,-0.471 -0.476,-0.471 0,0 0.145,0.195 0.399,0.539 0.246,0.352 0.562,0.855 0.863,1.512 1.148,2.496 1.542,5.802 0.414,8.381 -0.299,0.685 -0.738,1.408 -1.246,1.961 -1.121,1.218 -2.683,2.152 -4.269,2.613 -0.898,0.262 -1.884,0.408 -2.82,0.424 -0.853,0.015 -1.788,-0.075 -2.612,-0.307 2.276,-0.506 4.583,-2.775 5.634,-5.248 1.795,-4.225 -0.635,-10.879 -5.946,-12.279 4.335,-0.371 7.343,-2.51 9.435,-6.123 0,0 11.116,-22.543 11.643,-23.705 0.601,-1.325 0.728,-2.766 0.772,-3.465 0.091,-1.459 -0.036,-2.539 -0.316,-4.057 -0.671,-3.646 -3.421,-7.461 -6.393,-8.697 3.733,-0.387 8.317,1.486 11.036,6.183 l 0.988,10.944 0.969,-10.742 c 2.413,-4.903 6.535,-6.918 10.325,-6.526 -2.971,1.237 -5.396,5.473 -6.118,9.108 -0.191,0.959 -0.239,1.966 -0.167,2.99 0.043,0.637 0.531,2.51 0.817,3.166 0.44,1.008 12.879,28.969 12.879,28.969 0,0 12.797,-28.704 13.045,-29.327 0.401,-1.009 0.608,-2.078 0.655,-2.58 0.102,-1.119 0.087,-2.175 -0.121,-3.218 -0.723,-3.635 -3.148,-7.871 -6.12,-9.108 3.781,-0.39 7.889,1.61 10.305,6.481 l 0.973,10.787 0.985,-10.912 c 2.717,-4.723 7.314,-6.602 11.056,-6.215 -2.972,1.236 -5.722,5.051 -6.393,8.697 -0.325,1.764 -0.435,3.082 -0.242,4.805 0.06,0.539 0.268,1.912 0.723,2.886 0.455,0.975 11.359,23.108 11.359,23.108 2.117,3.867 5.281,6.166 9.777,6.551 -5.465,1.48 -7.79,8.24 -5.869,12.392" /></g><g
         transform="translate(250.9038,74.3955)"
         id="g4882"
         style="stroke:#ff0000"><path
           sodipodi:nodetypes="ccccccc"
           inkscape:connector-curvature="0"
           id="path4884"
           style="fill:#ffffff;fill-opacity:1;fill-rule:nonzero;stroke:#ff0000"
           d="m -0.273,6.324 -0.117,0 C -1.379,4.041 -2.56,2.939 -3.871,1.852 -3.286,-0.947 -0.901,-2.33 -0.395,-5 l 0.127,0 c 0.506,2.67 2.891,4.053 3.476,6.852 -1.311,1.087 -2.491,2.189 -3.481,4.472" /></g><g
         transform="translate(288.3638,74.3955)"
         id="g4886"
         style="stroke:#ff0000"><path
           sodipodi:nodetypes="ccccccc"
           inkscape:connector-curvature="0"
           id="path4888"
           style="fill:#ffffff;fill-opacity:1;fill-rule:nonzero;stroke:#ff0000"
           d="m -0.29,6.324 -0.117,0 C -1.396,4.041 -2.577,2.939 -3.888,1.852 -3.303,-0.947 -0.917,-2.33 -0.412,-5 l 0.127,0 C 0.221,-2.33 2.606,-0.947 3.191,1.852 1.88,2.939 0.7,4.041 -0.29,6.324" /></g><path
         sodipodi:nodetypes="cccccccccccccccccccccccccccccccccccccccccccccccccccccccccccccccccccccccccccccccccc"
         inkscape:connector-curvature="0"
         id="path6457"
         style="fill:#ffffff;fill-opacity:1;fill-rule:nonzero;stroke:#ff0000;stroke-width:1"
         d="m 111.1288,138.2568 c -3.374,-0.512 -8.763,-1.033 -12.124004,-1.564 l 0,85.529 c 3.219004,-0.39 8.466004,-0.772 11.696004,-1.147 11.525,-1.497 20.938,-13.214 22.941,-32.691 0.047,-0.455 0.25,-2.149 0.543,-3.35 0.937,-3.831 2.844,-6.281 5.198,-7.0505 -2.441,-0.8985 -4.871,-3.6175 -5.82,-7.7535 -0.093,-0.408 -0.42,-2.277 -0.501,-2.773 -2.856,-17.552 -11.635,-27.534 -21.933,-29.2 m 36.096,31.404 c 0.712,4.638 3.457,7.7 6.152,8.631 -2.745,0.833 -4.918,3.882 -5.584,8.633 -2.181,23.197 -16.764,36.34 -36.322,39.195 -3.893,0.517 -12.918004,1.557 -13.183004,1.593 0,-1.554 -1.608,-2.595 -3.108,-2.429 -0.11,-1.335 -0.838,-2.282 -1.573,-2.92 -0.326,-9.025 -0.653,-2.079 -0.978,-11.163 -0.326,9.072 -0.65,2.173 -0.976,11.304 -0.7,0.716 -1.491,1.767 -1.621,3.12 -1.484,0.215 -3.059,1.553 -3.447,3.691 -1.736,0.237 -2.504,0.322 -4.235,0.565 -2.173003,0.306 -9.445003,1.355 -9.445003,1.355 0,0 4.504,-3.287 6.837,-5.302 0.549,-0.031 1.117,-0.104 1.705,-0.228 2.289003,-0.484 3.586003,-1.317 4.978003,-2.508 0.773,-0.66 1.354,-1.449 1.931,-2.288 0.425,-0.606 0.716,-1.162 0.892,-1.545 0.167,-0.393 0.262,-0.617 0.262,-0.617 0,0 -0.128,0.207 -0.353,0.569 -0.236,0.358 -0.59,0.838 -1.089,1.359 -0.493,0.522 -1.122,1.078 -1.859,1.57 -0.722,0.513 -1.572,0.931 -2.431,1.264 -1.699,0.658 -3.929003,0.739 -5.675003,0.142 -1.259,-0.431 -2.266,-1.071 -3.269,-1.924 -1.008,-0.857 -1.764,-1.845 -2.393,-3.015 -0.183,-0.341 -0.578,-1.237 -0.802,-2.189 7.111,5.051 15.164003,3.293 15.378003,-9.314 l 0,-4.202 0,-0.629 0,-12.272 c -0.106,-5.307 -0.786,-8.191 -2.62,-9.541 -1.119,-0.822 -2.508003,-1.496 -4.986003,-0.552 -0.747,0.363 -1.324,0.86 -1.765,1.34 -1.245,1.356 -1.645,2.828 -1.848,4.145 -2.281,-2.519 -1.207,-7.145 1.424,-8.693 -4.448,0.556 -5.145,3.868 -5.145,3.868 -4.148,-0.725 -5.177,-3.547 -8.422,-4.048 2.968,-0.462 4.879,-3.394 8.423,-3.685 0,0 0.877,2.973 5.126,3.701 -2.618,-1.614 -3.681,-5.174 -1.406,-8.728 0.203,1.327 0.603,2.811 1.848,4.217 0.248,0.281 0.538,0.572 0.878,0.808 0.199,0.186 0.408,0.325 0.616,0.463 0.532,0.319 1.169,0.565 1.921,0.687 1.331003,0.127 2.591003,-0.349 3.336003,-0.854 1.834,-1.251 2.514,-4.1 2.62,-9.402 l 0,-12.578 c -0.214,-12.615 -8.267003,-14.744 -15.378003,-10.021 0.744,-3.407 3.275,-5.372 5.716,-6.569 2.017,-0.986 5.068003,-0.658 6.465003,-0.187 1.749,0.588 3.306,1.767 4.268,2.826 0.488,0.529 0.839,1.012 1.072,1.371 0.223,0.365 0.35,0.572 0.35,0.572 0,0 -0.094,-0.224 -0.259,-0.617 -0.173,-0.387 -0.457,-0.941 -0.872,-1.557 -0.552,-0.816 -1.202,-1.546 -1.944,-2.193 -0.868,-0.756 -1.824,-1.422 -2.89,-1.871 -0.687,-0.289 -1.371,-0.506 -2.095003,-0.674 -0.484,-0.113 -0.96,-0.176 -1.419,-0.203 -0.128,-0.018 -0.252,-0.014 -0.378,-0.018 -2.356,-2.128 -6.748,-5.533 -6.748,-5.533 0,0 7.272,1.383 9.445003,1.789 1.734,0.323 2.941,0.555 4.679,0.871 0.248,1.846 1.492,3.245 2.965,3.512 0.129,1.356 0.934,2.51 1.643,3.301 0.308,8.652 0.616,2.883 0.923,11.483 0.307,-8.528 0.613,-2.624 0.92,-11.1 0.778,-0.586 1.587,-1.494 1.702,-2.903 1.498,0.227 2.98,-0.601 3.2,-2.339 4.945004,0.765 9.492004,1.376 13.858004,2.109 17.505,3.131 31.468,15.392 34.985,36.357" /><path
         sodipodi:nodetypes="ccccccsccccsccccccccccccccccccccccc"
         inkscape:connector-curvature="0"
         id="path6433"
         style="fill:#ffffff;fill-opacity:1;fill-rule:nonzero;stroke:#ff0000;stroke-width:1"
         d="m 198.0865,205.3846 c -9.923,0.577 -34.576,2.191 -37.029,2.361 -0.279,0.019 -0.559,0.039 -0.837,0.059 l 0,-0.096 c 1.094,-0.472 1.937,-1.173 2.569,-2.072 0.027,-0.04 0.05,-0.084 0.076,-0.125 1.007,-1.513 1.445,-3.559 1.445,-6.074 l 0,-12.968 c -0.021,-4.264 -1.767,-7.098 -4.063,-7.765 l 0,-0.198 c 2.296,-0.573 4.042,-3.343 4.063,-7.602 l 0,-10.214 c 0,-3.328 -0.898,-5.281 -1.556,-6.193 -0.641,-0.889 -1.457,-1.706 -2.534,-2.206 l 0,-0.091 c 0.278,0.027 0.558,0.054 0.837,0.084 0,0 38.396,3.552 42.076,3.855 -1.571,1.295 -3.142,2.608 -4.711,3.938 0.096,0.23 0.201,0.457 0.281,0.697 1.443,4.341 -0.039,10.119 -5.495,10.587 3.286,-1.924 3.288,-5.252 2.581,-7.705 -0.891,-3.097 -4.104,-4.935 -7.574,-5.214 -4.592,-0.358 -9.176,-0.729 -13.751,-1.115 l 0,10.633 c 0.022,0.205 0.041,0.434 0.051,0.714 0.306,8.917 7.271,10.617 13.558,11.121 l 0,1.723 c -3.35,-0.036 -15.956,-0.171 -16.171,-0.174 1.192,0.446 2.386,1.452 2.562,3.413 l 0,18.352 c 4.853,-0.261 9.714,-0.516 14.584,-0.76 1.808,-0.093 3.879,-0.481 4.437,-2.354 0.361,-1.215 0.167,-3.165 -1.567,-4.426 3.625,-0.387 5.323,3.943 3.542,7.048 0.647,0.752 2.626,2.77 2.626,2.767" /></g></g></svg>